<svg xmlns="http://www.w3.org/2000/svg" id="Layer_1" data-name="Layer 1" viewBox="0 0 189.9 58"><title>videezy-logo-color</title><path class="cls-1" d="M33.9,3.2a3.59,3.59,0,0,1,2.2,1L17,44.5c-2.1,0-7.1.3-8.3.3a3.59,3.59,0,0,1-2.2-1L0,3.5c4,0,8.9-.3,10.4-.3a3.59,3.59,0,0,1,2.2,1l2,19.7a45.11,45.11,0,0,1,.1,6.5,47.27,47.27,0,0,1,2-7l7.9-20c3.6.1,8-.2,9.3-.2Z" transform="translate(0)"></path><path class="cls-1" d="M48,15.6,46.4,25.8l-1.3,8.3-.1.8c-.9,5.4.7,7.7.7,7.7a9.61,9.61,0,0,1-6.3,2.5c-4.4,0-6.2-3.2-5.1-10.1l.1-.9,1.3-8.3c.8-5,1-9,1-9,3.2-.6,7.5-2.1,9-2.1A4.22,4.22,0,0,1,48,15.6ZM46.1,0a3.9,3.9,0,0,1,4.1,4.7c-.6,3.6-5,5.9-8,5.9a4,4,0,0,1-4.1-4.8c.7-3.4,5.1-5.8,8-5.8Z" transform="translate(0)"></path><path class="cls-1" d="M77,34.9c-.9,5.4.7,7.7.7,7.7a9.61,9.61,0,0,1-6.3,2.5c-2.4,0-4.1-1-4.9-3a11.78,11.78,0,0,1-7.6,3c-5.1,0-9.4-4-9.4-11.6,0-10.9,8.8-18.9,16.6-18.9a9.75,9.75,0,0,1,3.7.7,30.28,30.28,0,0,1,.2-4.1v-.1c.8-5,1-9,1-9C74.2,1.5,78.5,0,80,0a3.59,3.59,0,0,1,2.2,1L76.9,34.1ZM60.8,31.4c0,4,1.3,5.7,3.8,5.7a7.72,7.72,0,0,0,1.5-.2c.1-.6.1-1.3.2-1.9l.1-.9,2-12.4c-.2,0-.5-.1-.8-.1-4,.1-6.8,4-6.8,9.8Z" transform="translate(0)"></path><path class="cls-1" d="M107.1,23.1c0,4.4-2.5,7.3-8.6,8.5L92,32.9c.5,2.8,2.3,4.1,5.2,4.1a8.76,8.76,0,0,0,6-2.7,3.74,3.74,0,0,1,1.8,3.1c0,3.7-5.7,7.6-12.2,7.6-6.7,0-11-4.2-11-11.2,0-8.2,5.8-19.2,16.2-19.2,5.5.1,9.1,3.4,9.1,8.5Zm-11,4.2a2.59,2.59,0,0,0,1.8-2.8c0-1.2-.4-3-1.8-3-2.6,0-3.7,4.1-4.1,7.2Z" transform="translate(0)"></path><path class="cls-1" d="M133.5,23.1c0,4.4-2.5,7.3-8.6,8.5l-6.5,1.3c.5,2.8,2.3,4.1,5.2,4.1a8.76,8.76,0,0,0,6-2.7,3.74,3.74,0,0,1,1.8,3.1c0,3.7-5.7,7.6-12.2,7.6-6.7,0-11-4.2-11-11.2,0-8.2,5.8-19.2,16.2-19.2,5.5.1,9.1,3.4,9.1,8.5Zm-11,4.2a2.59,2.59,0,0,0,1.8-2.8c0-1.2-.4-3-1.8-3-2.6,0-3.7,4.1-4.1,7.2Z" transform="translate(0)"></path><path class="cls-1" d="M155,34.1a7.72,7.72,0,0,1,2.2,5.4c0,4.5-3.8,5.7-7.1,5.7-4.2,0-7.2-2-10.4-3-.9,1-1.8,2-2.6,3,0,0-4.7-.1-4.7-3.3,0-3.9,6.5-10.5,13.6-18.1a19.52,19.52,0,0,0-2.3-.2c-4,0-5.6,2-5.6,2a8,8,0,0,1-1.9-5.4c.2-4.2,4.3-5.4,7.5-5.4,3.4,0,5.9,1.3,8.3,2.4l2-2.4s4.8.1,4.8,3.3c0,3.7-6.3,10.3-13.2,17.6a15.34,15.34,0,0,0,4.1.7,6.84,6.84,0,0,0,5.3-2.3Z" transform="translate(0)"></path><path class="cls-1" d="M185.7,42.5C184,52.8,176.9,58,167.9,58c-5.7,0-10-3-10-6.4a3.85,3.85,0,0,1,1.9-3.3,9,9,0,0,0,5.8,1.8c3.6,0,8.5-1.5,9.4-6.9l.7-4.2c-2.4,3.5-5.6,6.3-9.7,6.3-4.6,0-6.6-3.7-5.4-11.2l1.3-8.1c.8-5,1-9,1-9,3.2-.6,7.5-2.1,9-2.1a3.59,3.59,0,0,1,2.2,1l-1.6,10.2L171,35.5c-.1.9,0,1.3.8,1.3,3.8,0,5.9-10.7,5.9-10.7.8-5,1-9,1-9,3.2-.6,7.5-2.1,9-2.1a3.59,3.59,0,0,1,2.2,1l-1.6,10.2Z" transform="translate(0)"></path></svg>